HIERARCHY
ROOT mixamorig:Hips
{
	OFFSET -0.000008 104.274872 1.554316
	CHANNELS 6 Xposition Yposition Zposition Xrotation Yrotation Zrotation
	JOINT mixamorig:Spine
	{
		OFFSET -0.000005 10.181595 0.131519
		CHANNELS 6 Xposition Yposition Zposition Xrotation Yrotation Zrotation
		JOINT mixamorig:Spine1
		{
			OFFSET -0.000000 9.893959 -1.470707
			CHANNELS 6 Xposition Yposition Zposition Xrotation Yrotation Zrotation
			JOINT mixamorig:Spine2
			{
				OFFSET -0.000000 9.220757 -1.370641
				CHANNELS 6 Xposition Yposition Zposition Xrotation Yrotation Zrotation
				JOINT mixamorig:Neck
				{
					OFFSET 0.000001 16.740417 -2.049036
					CHANNELS 6 Xposition Yposition Zposition Xrotation Yrotation Zrotation
					JOINT mixamorig:Head
					{
						OFFSET 0.000000 9.617874 1.685006
						CHANNELS 6 Xposition Yposition Zposition Xrotation Yrotation Zrotation
						JOINT mixamorig:HeadTop_End
						{
							OFFSET 0.000002 22.037354 7.501101
							CHANNELS 6 Xposition Yposition Zposition Xrotation Yrotation Zrotation
							End Site
							{
								OFFSET 0.000168 2310.654297 -282.823242
							}
						}
					}
				}
				JOINT mixamorig:RightShoulder
				{
					OFFSET -4.569970 11.014908 -2.160885
					CHANNELS 6 Xposition Yposition Zposition Xrotation Yrotation Zrotation
					JOINT mixamorig:RightArm
					{
						OFFSET -10.592851 -0.524811 -2.232101
						CHANNELS 6 Xposition Yposition Zposition Xrotation Yrotation Zrotation
						JOINT mixamorig:RightForeArm
						{
							OFFSET -27.841511 0.000031 -0.000004
							CHANNELS 6 Xposition Yposition Zposition Xrotation Yrotation Zrotation
							JOINT mixamorig:RightHand
							{
								OFFSET -28.328831 -0.000015 0.000015
								CHANNELS 6 Xposition Yposition Zposition Xrotation Yrotation Zrotation
								JOINT mixamorig:RightHandThumb1
								{
									OFFSET -2.464806 -1.573990 2.681852
									CHANNELS 6 Xposition Yposition Zposition Xrotation Yrotation Zrotation
									JOINT mixamorig:RightHandThumb2
									{
										OFFSET -3.215179 -1.872803 1.924282
										CHANNELS 6 Xposition Yposition Zposition Xrotation Yrotation Zrotation
										JOINT mixamorig:RightHandThumb3
										{
											OFFSET -2.654831 -1.527969 1.512609
											CHANNELS 6 Xposition Yposition Zposition Xrotation Yrotation Zrotation
											JOINT mixamorig:RightHandThumb4
											{
												OFFSET -2.018814 -1.152008 1.108052
												CHANNELS 6 Xposition Yposition Zposition Xrotation Yrotation Zrotation
												End Site
												{
													OFFSET -188.809540 -114.533607 132.431396
												}
											}
										}
									}
								}
								JOINT mixamorig:RightHandIndex1
								{
									OFFSET -9.108284 -0.517868 2.259835
									CHANNELS 6 Xposition Yposition Zposition Xrotation Yrotation Zrotation
									JOINT mixamorig:RightHandIndex2
									{
										OFFSET -3.699989 0.000000 0.001215
										CHANNELS 6 Xposition Yposition Zposition Xrotation Yrotation Zrotation
										JOINT mixamorig:RightHandIndex3
										{
											OFFSET -2.850006 0.000031 -0.000522
											CHANNELS 6 Xposition Yposition Zposition Xrotation Yrotation Zrotation
											JOINT mixamorig:RightHandIndex4
											{
												OFFSET -2.772186 -0.000015 -0.000020
												CHANNELS 6 Xposition Yposition Zposition Xrotation Yrotation Zrotation
												End Site
												{
													OFFSET -277.218445 0.000000 -0.050231
												}
											}
										}
									}
								}
								JOINT mixamorig:RightHandMiddle1
								{
									OFFSET -9.532516 -0.000031 -0.000023
									CHANNELS 6 Xposition Yposition Zposition Xrotation Yrotation Zrotation
									JOINT mixamorig:RightHandMiddle2
									{
										OFFSET -3.700005 -0.000015 0.003713
										CHANNELS 6 Xposition Yposition Zposition Xrotation Yrotation Zrotation
										JOINT mixamorig:RightHandMiddle3
										{
											OFFSET -2.949974 0.000015 -0.002054
											CHANNELS 6 Xposition Yposition Zposition Xrotation Yrotation Zrotation
											JOINT mixamorig:RightHandMiddle4
											{
												OFFSET -2.946640 0.000000 -0.000156
												CHANNELS 6 Xposition Yposition Zposition Xrotation Yrotation Zrotation
												End Site
												{
													OFFSET -294.664337 0.000000 -0.113670
												}
											}
										}
									}
								}
								JOINT mixamorig:RightHandRing1
								{
									OFFSET -9.103600 -0.043076 -1.865134
									CHANNELS 6 Xposition Yposition Zposition Xrotation Yrotation Zrotation
									JOINT mixamorig:RightHandRing2
									{
										OFFSET -3.379288 0.000000 -0.001055
										CHANNELS 6 Xposition Yposition Zposition Xrotation Yrotation Zrotation
										JOINT mixamorig:RightHandRing3
										{
											OFFSET -2.889687 -0.000015 0.000379
											CHANNELS 6 Xposition Yposition Zposition Xrotation Yrotation Zrotation
											JOINT mixamorig:RightHandRing4
											{
												OFFSET -2.638809 -0.000015 0.000941
												CHANNELS 6 Xposition Yposition Zposition Xrotation Yrotation Zrotation
												End Site
												{
													OFFSET -263.880371 0.000000 0.516020
												}
											}
										}
									}
								}
								JOINT mixamorig:RightHandPinky1
								{
									OFFSET -8.076683 -0.486710 -3.806280
									CHANNELS 6 Xposition Yposition Zposition Xrotation Yrotation Zrotation
									JOINT mixamorig:RightHandPinky2
									{
										OFFSET -3.600014 -0.000015 -0.003747
										CHANNELS 6 Xposition Yposition Zposition Xrotation Yrotation Zrotation
										JOINT mixamorig:RightHandPinky3
										{
											OFFSET -2.099983 0.000000 -0.005739
											CHANNELS 6 Xposition Yposition Zposition Xrotation Yrotation Zrotation
											JOINT mixamorig:RightHandPinky4
											{
												OFFSET -2.115768 -0.000031 -0.003680
												CHANNELS 6 Xposition Yposition Zposition Xrotation Yrotation Zrotation
												End Site
												{
													OFFSET -211.577087 0.000000 -0.350686
												}
											}
										}
									}
								}
							}
						}
					}
				}
				JOINT mixamorig:LeftShoulder
				{
					OFFSET 4.570447 11.014725 -2.160855
					CHANNELS 6 Xposition Yposition Zposition Xrotation Yrotation Zrotation
					JOINT mixamorig:LeftArm
					{
						OFFSET 10.592371 -0.524597 -2.232119
						CHANNELS 6 Xposition Yposition Zposition Xrotation Yrotation Zrotation
						JOINT mixamorig:LeftForeArm
						{
							OFFSET 27.841532 -0.000031 0.000026
							CHANNELS 6 Xposition Yposition Zposition Xrotation Yrotation Zrotation
							JOINT mixamorig:LeftHand
							{
								OFFSET 28.328846 -0.000061 0.000022
								CHANNELS 6 Xposition Yposition Zposition Xrotation Yrotation Zrotation
								JOINT mixamorig:LeftHandThumb1
								{
									OFFSET 2.466141 -1.576172 2.681732
									CHANNELS 6 Xposition Yposition Zposition Xrotation Yrotation Zrotation
									JOINT mixamorig:LeftHandThumb2
									{
										OFFSET 3.217812 -1.872070 1.916482
										CHANNELS 6 Xposition Yposition Zposition Xrotation Yrotation Zrotation
										JOINT mixamorig:LeftHandThumb3
										{
											OFFSET 2.656029 -1.528778 1.514513
											CHANNELS 6 Xposition Yposition Zposition Xrotation Yrotation Zrotation
											JOINT mixamorig:LeftHandThumb4
											{
												OFFSET 2.020889 -1.154053 1.115139
												CHANNELS 6 Xposition Yposition Zposition Xrotation Yrotation Zrotation
												End Site
												{
													OFFSET 190.885437 -115.081749 130.048782
												}
											}
										}
									}
								}
								JOINT mixamorig:LeftHandIndex1
								{
									OFFSET 9.109314 -0.518021 2.259871
									CHANNELS 6 Xposition Yposition Zposition Xrotation Yrotation Zrotation
									JOINT mixamorig:LeftHandIndex2
									{
										OFFSET 3.699989 0.000000 -0.000322
										CHANNELS 6 Xposition Yposition Zposition Xrotation Yrotation Zrotation
										JOINT mixamorig:LeftHandIndex3
										{
											OFFSET 2.850006 0.000000 0.000352
											CHANNELS 6 Xposition Yposition Zposition Xrotation Yrotation Zrotation
											JOINT mixamorig:LeftHandIndex4
											{
												OFFSET 2.774864 -0.000031 -0.000027
												CHANNELS 6 Xposition Yposition Zposition Xrotation Yrotation Zrotation
												End Site
												{
													OFFSET 277.486267 0.000000 -0.009857
												}
											}
										}
									}
								}
								JOINT mixamorig:LeftHandMiddle1
								{
									OFFSET 9.533394 0.000061 0.000044
									CHANNELS 6 Xposition Yposition Zposition Xrotation Yrotation Zrotation
									JOINT mixamorig:LeftHandMiddle2
									{
										OFFSET 3.699989 -0.000015 -0.000231
										CHANNELS 6 Xposition Yposition Zposition Xrotation Yrotation Zrotation
										JOINT mixamorig:LeftHandMiddle3
										{
											OFFSET 2.949997 -0.000015 -0.000059
											CHANNELS 6 Xposition Yposition Zposition Xrotation Yrotation Zrotation
											JOINT mixamorig:LeftHandMiddle4
											{
												OFFSET 2.952896 0.000031 0.000063
												CHANNELS 6 Xposition Yposition Zposition Xrotation Yrotation Zrotation
												End Site
												{
													OFFSET 295.289337 0.000000 0.022810
												}
											}
										}
									}
								}
								JOINT mixamorig:LeftHandRing1
								{
									OFFSET 9.104523 -0.042999 -1.865074
									CHANNELS 6 Xposition Yposition Zposition Xrotation Yrotation Zrotation
									JOINT mixamorig:LeftHandRing2
									{
										OFFSET 3.150009 -0.000031 0.000043
										CHANNELS 6 Xposition Yposition Zposition Xrotation Yrotation Zrotation
										JOINT mixamorig:LeftHandRing3
										{
											OFFSET 2.949982 -0.000015 0.000040
											CHANNELS 6 Xposition Yposition Zposition Xrotation Yrotation Zrotation
											JOINT mixamorig:LeftHandRing4
											{
												OFFSET 2.644348 0.000000 0.000057
												CHANNELS 6 Xposition Yposition Zposition Xrotation Yrotation Zrotation
												End Site
												{
													OFFSET 264.434631 0.000000 0.012105
												}
											}
										}
									}
								}
								JOINT mixamorig:LeftHandPinky1
								{
									OFFSET 8.077789 -0.486847 -3.806259
									CHANNELS 6 Xposition Yposition Zposition Xrotation Yrotation Zrotation
									JOINT mixamorig:LeftHandPinky2
									{
										OFFSET 3.599953 0.000031 0.014727
										CHANNELS 6 Xposition Yposition Zposition Xrotation Yrotation Zrotation
										JOINT mixamorig:LeftHandPinky3
										{
											OFFSET 2.100021 0.000015 0.007705
											CHANNELS 6 Xposition Yposition Zposition Xrotation Yrotation Zrotation
											JOINT mixamorig:LeftHandPinky4
											{
												OFFSET 2.125504 0.000031 0.007517
												CHANNELS 6 Xposition Yposition Zposition Xrotation Yrotation Zrotation
												End Site
												{
													OFFSET 212.550781 0.000000 0.625752
												}
											}
										}
									}
								}
							}
						}
					}
				}
			}
		}
	}
	JOINT mixamorig:RightUpLeg
	{
		OFFSET -8.207787 -6.751648 -1.599560
		CHANNELS 6 Xposition Yposition Zposition Xrotation Yrotation Zrotation
		JOINT mixamorig:RightLeg
		{
			OFFSET -0.000002 -44.370117 0.345942
			CHANNELS 6 Xposition Yposition Zposition Xrotation Yrotation Zrotation
			JOINT mixamorig:RightFoot
			{
				OFFSET 0.000003 -44.423679 -3.043532
				CHANNELS 6 Xposition Yposition Zposition Xrotation Yrotation Zrotation
				JOINT mixamorig:RightToeBase
				{
					OFFSET -0.000002 -8.728671 10.710558
					CHANNELS 6 Xposition Yposition Zposition Xrotation Yrotation Zrotation
					JOINT mixamorig:RightToe_End
					{
						OFFSET -0.000001 -0.000679 9.278119
						CHANNELS 6 Xposition Yposition Zposition Xrotation Yrotation Zrotation
						End Site
						{
							OFFSET 0.000000 -0.067690 927.812134
						}
					}
				}
			}
		}
	}
	JOINT mixamorig:LeftUpLeg
	{
		OFFSET 8.207793 -6.751686 -1.599556
		CHANNELS 6 Xposition Yposition Zposition Xrotation Yrotation Zrotation
		JOINT mixamorig:LeftLeg
		{
			OFFSET -0.000004 -44.370014 0.346954
			CHANNELS 6 Xposition Yposition Zposition Xrotation Yrotation Zrotation
			JOINT mixamorig:LeftFoot
			{
				OFFSET -0.000001 -44.423672 -3.044401
				CHANNELS 6 Xposition Yposition Zposition Xrotation Yrotation Zrotation
				JOINT mixamorig:LeftToeBase
				{
					OFFSET -0.000002 -8.728669 10.710558
					CHANNELS 6 Xposition Yposition Zposition Xrotation Yrotation Zrotation
					JOINT mixamorig:LeftToe_End
					{
						OFFSET -0.000003 -0.000679 9.278133
						CHANNELS 6 Xposition Yposition Zposition Xrotation Yrotation Zrotation
						End Site
						{
							OFFSET 0.000000 -0.068021 927.813477
						}
					}
				}
			}
		}
	}
}
MOTION
Frames: 3
Frame Time: 0.033333
0.000006 104.270477 1.554256 0.000010 0.000003 -0.000113 -0.000005 10.181587 0.131522 0.000001 -0.000003 0.000084 -0.000000 9.893967 -1.470711 0.000001 0.000000 -0.000000 -0.000000 9.220802 -1.370642 0.000000 -0.000000 -0.000000 0.000001 16.740433 -2.049030 0.000000 -0.000000 -0.000000 0.000000 9.617859 1.685014 0.000000 0.000000 0.000000 0.000002 22.037384 7.501101 0.000000 -0.000000 0.000000 -4.569968 11.014880 -2.160881 0.000008 0.000001 -0.000038 -10.592749 -0.524849 -2.231720 85.257727 71.765009 -67.318222 -27.841469 0.000026 0.000591 51.622406 112.176998 -71.466257 -28.328835 0.000021 0.000033 -0.000320 -0.000044 0.000007 -2.464586 -1.574224 2.682096 92.674978 -138.124771 143.991972 -3.215147 -1.872983 1.924397 305.368551 -8.163317 344.724592 -2.654866 -1.528189 1.512747 308.833478 5.148884 -13.637023 -2.018835 -1.152014 1.108064 -0.000004 0.000000 0.000005 -9.108251 -0.517743 2.260429 210.943316 15.314683 -308.134695 -3.700094 0.000257 0.001602 -71.282224 157.168158 148.579004 -2.850113 0.000259 -0.000410 53.956596 20.447322 -10.490593 -2.772179 0.000002 -0.000017 -0.000000 -0.000001 0.000000 -9.532482 0.000059 0.000559 208.462073 10.391161 -320.307240 -3.700018 0.000359 0.003968 101.233628 0.545274 -0.566189 -2.949977 0.000247 -0.002010 48.554049 0.313305 -0.138578 -2.946633 0.000001 -0.000160 0.000000 0.000002 -0.000003 -9.103584 -0.042945 -1.864542 28.724296 170.572199 -144.380965 -3.379137 0.000411 -0.000791 108.800481 -15.553500 21.585957 -2.889627 0.000315 0.000401 55.406337 -14.496242 7.626814 -2.638809 -0.000014 0.000941 -0.000001 -0.000000 0.000000 -8.076645 -0.486640 -3.805724 -153.053597 6.121172 24.791582 -3.599891 0.000337 -0.003479 -68.341363 -164.913989 -157.616546 -2.099904 0.000293 -0.005717 58.074428 -14.035640 7.896424 -2.115776 -0.000026 -0.003684 -0.000001 -0.000000 -0.000003 4.570446 11.014691 -2.160851 -0.000018 0.000010 -0.000021 10.592543 -0.524539 -2.232392 78.096929 -69.897403 59.099359 27.841730 -0.000066 -0.000082 -126.531276 -71.133490 -109.676418 28.328833 0.000002 0.000020 0.000021 -0.000090 -0.000000 2.466145 -1.576172 2.681870 113.794244 142.058386 -157.196462 3.217835 -1.871965 1.916578 300.492369 16.137111 17.659620 2.656072 -1.528722 1.514614 -69.683475 12.987536 21.373926 2.020875 -1.154076 1.115143 -0.000004 -0.000000 0.000003 9.109121 -0.517717 2.260041 207.298946 -15.672921 300.926387 3.700089 0.000165 -0.000451 101.545741 -24.103389 29.334365 2.850047 0.000059 0.000251 43.487873 -16.034677 6.429926 2.774905 -0.000047 -0.000020 0.000000 0.000002 0.000005 9.533195 0.000390 0.000206 202.962377 -13.535225 299.417735 3.700042 0.000209 -0.000389 90.804927 -6.196091 6.281066 2.950012 0.000018 -0.000172 33.942270 1.148024 -0.349636 2.952865 -0.000014 0.000062 -0.000000 -0.000003 0.000000 9.104342 -0.042685 -1.864938 200.357889 -10.272018 306.811961 3.149918 0.000270 -0.000161 91.049919 14.792752 -15.062118 2.949940 0.000042 -0.000124 33.577152 16.647189 -5.054617 2.644325 0.000016 0.000054 -0.000002 -0.000000 -0.000000 8.077566 -0.486559 -3.806128 194.625967 -10.070719 290.341069 3.599937 0.000239 0.014516 86.575202 6.421604 -5.697234 2.099971 0.000061 0.007569 396.168403 12.436124 -3.993344 2.125504 -0.000014 0.007514 -0.000002 0.000006 -0.000000 -8.207786 -6.751667 -1.599560 -0.077001 -0.000003 0.000080 -0.000002 -44.370110 0.345938 0.153719 -0.000000 -0.000000 0.000000 -44.423679 -3.043532 -0.076700 0.000000 -0.000002 -0.000006 -8.728667 10.710559 -0.000009 -0.000000 -0.000000 -0.000001 -0.000679 9.278123 0.000000 -0.000000 -0.000000 8.207792 -6.751710 -1.599556 -0.074518 -0.000003 0.000081 -0.000002 -44.370014 0.346960 0.148822 0.000002 0.000000 -0.000001 -44.423664 -3.044403 -0.074314 0.000000 -0.000002 -0.000004 -8.728671 10.710558 0.000007 -0.000000 -0.000000 0.000000 -0.000680 9.278137 -0.000000 0.000000 -0.000001 
0.000006 104.270477 1.554256 0.000010 0.000003 -0.000113 -0.000005 10.181587 0.131522 0.000001 -0.000003 0.000084 -0.000000 9.893967 -1.470711 0.000001 0.000000 -0.000000 -0.000000 9.220802 -1.370642 0.000000 -0.000000 -0.000000 0.000001 16.740433 -2.049030 0.000000 -0.000000 -0.000000 0.000000 9.617859 1.685014 0.000000 0.000000 0.000000 0.000002 22.037384 7.501101 0.000000 -0.000000 0.000000 -4.569968 11.014880 -2.160881 0.000008 0.000001 -0.000038 -10.592747 -0.524843 -2.231719 85.327135 72.048571 -67.658146 -27.841476 0.000017 0.000600 51.896617 112.019501 -71.636199 -28.328829 0.000022 0.000027 -0.000320 -0.000044 0.000007 -2.464581 -1.574218 2.682094 94.281131 -137.924947 144.936136 -3.215134 -1.872972 1.924397 306.249017 -7.678446 345.037798 -2.654881 -1.528177 1.512749 310.065808 6.527279 -13.306657 -2.018831 -1.152010 1.108061 0.000002 -0.000000 0.000007 -9.108253 -0.517754 2.260432 210.297891 15.142943 -307.650462 -3.700117 0.000263 0.001589 -71.666675 158.063664 149.988222 -2.850126 0.000263 -0.000399 53.002473 20.728979 -10.420494 -2.772172 0.000001 -0.000014 -0.000000 0.000001 0.000000 -9.532471 0.000042 0.000564 209.161962 10.621645 -320.432724 -3.700007 0.000363 0.003964 101.863433 0.549143 -0.577343 -2.949987 0.000240 -0.002026 50.078786 0.317372 -0.145431 -2.946628 0.000003 -0.000156 0.000001 0.000000 -0.000002 -9.103580 -0.042968 -1.864534 29.882252 170.778444 -146.450307 -3.379148 0.000422 -0.000790 109.611088 -16.477411 23.189252 -2.889614 0.000300 0.000406 57.100989 -14.990498 8.174357 -2.638810 0.000015 0.000944 -0.000002 -0.000001 0.000000 -8.076665 -0.486639 -3.805708 -151.080014 5.862761 22.105149 -3.599849 0.000379 -0.003474 -66.874840 -163.666291 -155.175573 -2.099894 0.000300 -0.005711 58.815941 -14.968981 8.546544 -2.115771 -0.000054 -0.003676 0.000001 0.000000 -0.000005 4.570446 11.014691 -2.160851 -0.000018 0.000010 -0.000021 10.592545 -0.524545 -2.232384 77.905124 -70.605353 59.577718 27.841736 -0.000073 -0.000082 -126.591614 -71.276555 -109.889349 28.328831 -0.000013 0.000034 0.000019 -0.000089 0.000000 2.466153 -1.576155 2.681884 101.720532 135.974873 -148.965442 3.217837 -1.871960 1.916557 299.302824 16.499106 18.163013 2.656062 -1.528721 1.514625 -65.126421 8.886018 19.012149 2.020895 -1.154085 1.115150 -0.000003 0.000003 0.000004 9.109108 -0.517714 2.260051 204.816145 -15.762229 295.656486 3.700066 0.000153 -0.000444 100.437262 -23.964052 28.621653 2.850042 0.000047 0.000272 41.118784 -17.891155 6.756997 2.774911 -0.000014 -0.000025 -0.000000 0.000002 0.000003 9.533190 0.000369 0.000209 200.693170 -13.417617 294.422162 3.700033 0.000196 -0.000382 89.913580 -5.867847 5.856557 2.950007 0.000019 -0.000163 30.598380 0.537394 -0.146349 2.952871 -0.000027 0.000065 0.000001 0.000000 -0.000002 9.104336 -0.042685 -1.864930 197.821253 -10.061490 301.371415 3.149947 0.000280 -0.000164 90.195892 15.598508 -15.650199 2.949945 0.000043 -0.000123 31.431885 16.525583 -4.679830 2.644323 0.000032 0.000066 0.000002 -0.000000 0.000001 8.077507 -0.486597 -3.806136 191.963355 -10.641379 276.505729 3.599940 0.000257 0.014529 86.301202 5.226074 -4.539974 2.099985 0.000052 0.007575 394.101423 11.138503 -3.346036 2.125507 0.000001 0.007519 -0.000001 0.000000 -0.000001 -8.207786 -6.751667 -1.599560 -0.077001 -0.000003 0.000080 -0.000002 -44.370110 0.345938 0.153719 -0.000000 -0.000000 0.000000 -44.423679 -3.043532 -0.076700 0.000000 -0.000002 -0.000006 -8.728667 10.710559 -0.000009 -0.000000 -0.000000 -0.000001 -0.000679 9.278123 0.000000 -0.000000 -0.000000 8.207792 -6.751710 -1.599556 -0.074518 -0.000003 0.000081 -0.000002 -44.370014 0.346960 0.148822 0.000002 0.000000 -0.000001 -44.423664 -3.044403 -0.074314 0.000000 -0.000002 -0.000004 -8.728671 10.710558 0.000007 -0.000000 -0.000000 0.000000 -0.000680 9.278137 -0.000000 0.000000 -0.000001 
0.000006 104.270477 1.554256 0.000010 0.000003 -0.000113 -0.000005 10.181587 0.131522 0.000001 -0.000003 0.000084 -0.000000 9.893967 -1.470711 0.000001 0.000000 -0.000000 -0.000000 9.220802 -1.370642 0.000000 -0.000000 -0.000000 0.000001 16.740433 -2.049030 0.000000 -0.000000 -0.000000 0.000000 9.617859 1.685014 0.000000 0.000000 0.000000 0.000002 22.037384 7.501101 0.000000 -0.000000 0.000000 -4.569968 11.014880 -2.160881 0.000008 0.000001 -0.000038 -10.592747 -0.524852 -2.231718 84.984718 72.428904 -67.709694 -27.841478 0.000013 0.000590 51.449179 110.912478 -69.974195 -28.328829 0.000006 0.000035 -0.000318 -0.000044 0.000007 -2.464573 -1.574212 2.682106 92.252968 -136.254283 143.168101 -3.215115 -1.872999 1.924410 305.446770 -9.787195 344.648149 -2.654855 -1.528205 1.512747 309.227799 3.691149 -13.624832 -2.018827 -1.152006 1.108055 0.000001 -0.000005 0.000002 -9.108229 -0.517753 2.260446 208.195600 14.605040 -305.880760 -3.700102 0.000249 0.001592 -70.887180 158.744661 150.498970 -2.850108 0.000261 -0.000405 52.376069 20.439894 -10.133300 -2.772182 -0.000015 -0.000022 -0.000000 0.000000 0.000001 -9.532473 0.000064 0.000576 207.668883 10.242319 -319.756208 -3.700001 0.000378 0.003972 102.564545 0.521632 -0.550338 -2.949996 0.000245 -0.002014 48.345592 0.426087 -0.188526 -2.946635 0.000002 -0.000151 0.000002 -0.000003 0.000001 -9.103577 -0.042970 -1.864534 28.910087 170.609670 -144.738170 -3.379152 0.000413 -0.000798 110.481663 -15.703915 22.464940 -2.889625 0.000297 0.000402 54.858324 -14.765964 7.680527 -2.638810 -0.000016 0.000943 -0.000003 -0.000000 0.000000 -8.076651 -0.486635 -3.805702 -151.687764 6.387271 24.596780 -3.599867 0.000344 -0.003471 -66.355131 -164.450519 -156.097526 -2.099891 0.000289 -0.005732 58.044819 -15.020433 8.441557 -2.115767 -0.000056 -0.003688 -0.000002 0.000001 -0.000003 4.570446 11.014691 -2.160851 -0.000018 0.000010 -0.000021 10.592545 -0.524545 -2.232390 77.959779 -70.867768 59.866048 27.841743 -0.000057 -0.000100 -126.939298 -71.804105 -110.817668 28.328838 -0.000028 0.000023 0.000021 -0.000088 0.000000 2.466148 -1.576158 2.681870 111.082508 139.328592 -155.253642 3.217836 -1.871962 1.916574 299.195289 16.866802 18.245658 2.656086 -1.528715 1.514644 -69.018939 11.803158 20.899021 2.020898 -1.154071 1.115141 -0.000002 0.000003 0.000006 9.109110 -0.517719 2.260040 204.489949 -15.145931 297.029627 3.700082 0.000156 -0.000425 100.303213 -23.129541 27.574268 2.850032 0.000059 0.000267 41.245484 -17.394363 6.588875 2.774897 -0.000044 -0.000025 -0.000000 0.000001 0.000002 9.533178 0.000360 0.000198 200.675001 -13.029392 295.912509 3.700011 0.000173 -0.000395 87.719109 -6.057526 5.819099 2.950006 0.000024 -0.000170 31.921009 -0.270053 0.077946 2.952882 -0.000045 0.000064 0.000003 0.000000 -0.000000 9.104338 -0.042689 -1.864937 199.196853 -9.829408 306.091376 3.149918 0.000262 -0.000163 88.970249 15.538969 -15.264418 2.949965 0.000050 -0.000104 33.268967 15.853602 -4.764059 2.644317 0.000017 0.000053 -0.000001 -0.000000 0.000000 8.077555 -0.486572 -3.806127 194.117268 -10.942577 284.074917 3.599902 0.000255 0.014528 85.248964 5.507675 -4.718607 2.100001 0.000063 0.007574 395.649253 11.262207 -3.546750 2.125490 -0.000011 0.007508 0.000003 -0.000001 -0.000001 -8.207786 -6.751667 -1.599560 -0.077001 -0.000003 0.000080 -0.000002 -44.370110 0.345938 0.153719 -0.000000 -0.000000 0.000000 -44.423679 -3.043532 -0.076700 0.000000 -0.000002 -0.000006 -8.728667 10.710559 -0.000009 -0.000000 -0.000000 -0.000001 -0.000679 9.278123 0.000000 -0.000000 -0.000000 8.207792 -6.751710 -1.599556 -0.074518 -0.000003 0.000081 -0.000002 -44.370014 0.346960 0.148822 0.000002 0.000000 -0.000001 -44.423664 -3.044403 -0.074314 0.000000 -0.000002 -0.000004 -8.728671 10.710558 0.000007 -0.000000 -0.000000 0.000000 -0.000680 9.278137 -0.000000 0.000000 -0.000001 
